<?xml version="1.0" encoding="utf-8"?>
<!-- Generator: Adobe Illustrator 25.0.1, SVG Export Plug-In . SVG Version: 6.00 Build 0)  -->
<svg version="1.0"
	 id="svg2" xmlns:cc="http://creativecommons.org/ns#" xmlns:dc="http://purl.org/dc/elements/1.1/" xmlns:rdf="http://www.w3.org/1999/02/22-rdf-syntax-ns#" xmlns:svg="http://www.w3.org/2000/svg"
	 xmlns="http://www.w3.org/2000/svg" xmlns:xlink="http://www.w3.org/1999/xlink" x="0px" y="0px" viewBox="0 0 453.9 332"
	 style="enable-background:new 0 0 453.9 332;" xml:space="preserve">
<style type="text/css">
	.st0{clip-path:url(#SVGID_2_);}
	.st1{fill-rule:evenodd;clip-rule:evenodd;fill:#333333;}
	.st2{fill:#333333;}
</style>
<g id="g14">
	<g>
		<defs>
			<rect id="SVGID_1_" x="-859" y="-332.4" width="1479.2" height="986.1"/>
		</defs>
		<clipPath id="SVGID_2_">
			<use xlink:href="#SVGID_1_"  style="overflow:visible;"/>
		</clipPath>
		<g id="g16" class="st0">
			<g id="g50" transform="translate(243.818,110.3118)">
				<path id="path52" class="st1" d="M-65.6,84.7h-28.6h0c-2.2,0-4,1.8-4,4.1c0,0,0,0,0,0h0v20.4h0l0,0c0,2.2,1.8,4.1,4,4.1h0h3
					h25.6v13.6h-35.7v0c-5.8,0-10.6-4.7-10.6-10.5V81.6c0-5.8,4.7-10.5,10.6-10.5h35.7V84.7z"/>
			</g>
			<g id="g54" transform="translate(246.1925,119.0264)">
				<path id="path56" class="st1" d="M-57.6,38.1c0,5.9-4.8,10.7-10.7,10.7h-45.9V35h38.7h0c2.3,0,4.1-1.9,4.1-4.1v0v-45.6v0
					c0-2.3-1.8-4.1-4.1-4.1h0h-20.7h0c-2.3,0-4.1,1.8-4.1,4.1v0V6v0c0,2.3,1.8,4.1,4.1,4.1h0h16.6v13.8h-23.8
					c-5.9,0-10.7-4.8-10.7-10.7V-22c0-5.9,4.8-10.7,10.7-10.7h35.2c5.9,0,10.7,4.8,10.7,10.7V38.1z"/>
			</g>
			<g id="g58" transform="translate(277.2978,100.6138)">
				<path id="path60" class="st1" d="M46.5,136.6H32.9V94.4h-9.5h0c-2.2,0-4,1.8-4,4.1v0v38.1H5.7V94.4h-9.5h0
					c-2.3,0-4.1,1.8-4.1,4.1v0v38.1h-13.6V91.3c0-5.8,4.7-10.5,10.5-10.5h57.5V136.6z"/>
			</g>
			<g id="g62" transform="translate(277.3066,119.0264)">
				<path id="path64" class="st1" d="M46.6,38.1c0,5.9-4.8,10.7-10.7,10.7H-10V35h38.7h0c2.3,0,4.1-1.9,4.1-4.1v0v-45.6v0
					c0-2.3-1.8-4.1-4.1-4.1h0H7.9h0c-2.3,0-4.1,1.8-4.1,4.1v0V6v0c0,2.3,1.8,4.1,4.1,4.1h0h16.6v13.8H0.7c-5.9,0-10.7-4.8-10.7-10.7
					V-22c0-5.9,4.8-10.7,10.7-10.7h35.2c5.9,0,10.7,4.8,10.7,10.7V38.1z"/>
			</g>
			<g id="g66" transform="translate(258.5686,131.166)">
				<path id="path68" class="st1" d="M-16.2-26.8v20.7v0c0,2.3-1.8,4.1-4.1,4.1h0H-41h0c-2.3,0-4.1-1.9-4.1-4.1v0v-20.7v0
					c0-2.3,1.8-4.1,4.1-4.1h0h20.7h0C-18-31-16.2-29.1-16.2-26.8L-16.2-26.8z M-13-44.8h-35.2c-5.9,0-10.7,4.8-10.7,10.7V1.1
					c0,5.9,4.8,10.7,10.7,10.7H-13C-7.1,11.8-2.3,7-2.3,1.1v-35.2C-2.3-40-7.1-44.8-13-44.8"/>
			</g>
			<g id="g70" transform="translate(256.022,109.3712)">
				<path id="path72" class="st1" d="M-24.7,89.7v20.4c0,2.2-1.8,4.1-4,4.1c0,0,0,0,0,0v0h-20.4v0c0,0,0,0,0,0c-2.2,0-4-1.8-4-4.1
					V89.7v0c0-2.2,1.8-4.1,4-4.1h0h20.4h0C-26.5,85.6-24.7,87.5-24.7,89.7L-24.7,89.7z M-21.6,72h-34.7c-5.8,0-10.6,4.7-10.6,10.5
					v34.7c0,5.8,4.7,10.5,10.6,10.5h34.7c5.8,0,10.5-4.7,10.5-10.5V82.6C-11.1,76.8-15.8,72-21.6,72"/>
			</g>
			<g id="g74" transform="translate(282.3085,95.1629)">
				<path id="path76" class="st2" d="M63.3,165.7c0,3.5-1.4,6.7-3.7,9c-2.3,2.3-5.4,3.7-8.9,3.7h-210.1c-3.5,0-6.6-1.4-8.9-3.7
					c-2.3-2.3-3.7-5.4-3.7-9V-32.5c0-3.5,1.4-6.6,3.7-8.9c2.3-2.3,5.4-3.7,8.9-3.7H50.7c3.5,0,6.6,1.4,8.9,3.7
					c2.3,2.3,3.7,5.4,3.7,8.9V165.7z M63.3-45.1c-3.2-3.2-7.7-5.2-12.6-5.2h-210.1c-4.9,0-9.4,2-12.6,5.2c-3.2,3.2-5.2,7.7-5.2,12.6
					v198.2c0,4.9,2,9.4,5.2,12.6c3.2,3.2,7.7,5.2,12.6,5.2H50.7c4.9,0,9.4-2,12.6-5.2c3.2-3.2,5.2-7.7,5.2-12.6V-32.5
					C68.5-37.4,66.5-41.9,63.3-45.1"/>
			</g>
		</g>
	</g>
</g>
</svg>
