<?xml version="1.0" encoding="UTF-8" standalone="no"?>


<svg
   xmlns:dc="http://purl.org/dc/elements/1.1/"
   xmlns:cc="http://creativecommons.org/ns#"
   xmlns:rdf="http://www.w3.org/1999/02/22-rdf-syntax-ns#"
   xmlns:svg="http://www.w3.org/2000/svg"
   xmlns="http://www.w3.org/2000/svg"
   xmlns:sodipodi="http://sodipodi.sourceforge.net/DTD/sodipodi-0.dtd"
   xmlns:inkscape="http://www.inkscape.org/namespaces/inkscape"
   width="1000"
   height="139.00966"
   id="svg4809"
   version="1.1"
   inkscape:version="0.48.5 r10040"
   sodipodi:docname="New document 4">
  <defs
     id="defs4811">
    <clipPath
       clipPathUnits="userSpaceOnUse"
       id="clipPath3749">
      <path
         inkscape:connector-curvature="0"
         d="m 55.037,345.498 94.104,0 0,13.084 -94.104,0 0,-13.084 z"
         id="path3751" />
    </clipPath>
  </defs>
  <sodipodi:namedview
     id="base"
     pagecolor="#ffffff"
     bordercolor="#666666"
     borderopacity="1.0"
     inkscape:pageopacity="0.0"
     inkscape:pageshadow="2"
     inkscape:zoom="0.55712891"
     inkscape:cx="622.694"
     inkscape:cy="34.583211"
     inkscape:document-units="px"
     inkscape:current-layer="layer1"
     showgrid="false"
     fit-margin-top="0"
     fit-margin-left="0"
     fit-margin-right="0"
     fit-margin-bottom="0"
     inkscape:window-width="1016"
     inkscape:window-height="1012"
     inkscape:window-x="897"
     inkscape:window-y="5"
     inkscape:window-maximized="0" />
  <metadata
     id="metadata4814">
    <rdf:RDF>
      <cc:Work
         rdf:about="">
        <dc:format>image/svg+xml</dc:format>
        <dc:type
           rdf:resource="http://purl.org/dc/dcmitype/StillImage" />
        <dc:title></dc:title>
      </cc:Work>
    </rdf:RDF>
  </metadata>
  <g
     inkscape:label="Layer 1"
     inkscape:groupmode="layer"
     id="layer1"
     transform="translate(-61.185007,-398.67115)">
    <g
       transform="matrix(10.626541,0,0,-10.626541,-523.66793,4209.1316)"
       id="g3745">
      <g
         id="g3747"
         clip-path="url(#clipPath3749)">
        <g
           id="g3753"
           transform="translate(80.9529,352.0929)">
          <path
             inkscape:connector-curvature="0"
             d="M 0,0 C 0.293,0.822 0.953,1.149 1.62,1.149 2.555,1.149 3.087,0.556 3.277,0 L 0,0 z m 1.59,2.744 c -1.954,0 -3.393,-1.726 -3.393,-3.436 0,-1.767 1.472,-3.459 3.409,-3.459 1.414,0 2.572,0.794 3.074,1.781 l -1.541,0.542 c -0.403,-0.5 -0.894,-0.731 -1.546,-0.731 -0.666,0 -1.435,0.434 -1.617,1.26 l 3.827,0 c 0.824,0 1.238,0.164 1.238,0.779 C 5.014,0.827 3.84,2.744 1.59,2.744 m 14.825,-5.203 c -0.987,0 -1.74,0.788 -1.74,1.758 0,0.968 0.753,1.754 1.74,1.754 0.987,0 1.717,-0.776 1.717,-1.754 0,-0.982 -0.73,-1.758 -1.717,-1.758 m 1.707,4.526 -0.033,0 c -0.149,0.222 -0.847,0.677 -1.735,0.677 -1.863,0 -3.43,-1.55 -3.43,-3.445 0,-1.897 1.567,-3.45 3.43,-3.45 0.888,0 1.586,0.458 1.735,0.68 l 0.033,0 0,-0.48 1.888,0 0,9.141 -1.888,0 0,-3.123 z M 9.32,2.744 C 8.611,2.744 7.983,2.456 7.597,1.992 l -0.021,0 0,0.552 -1.888,0 0,-6.493 1.888,0 0,3.159 c 0,1.262 0.685,1.808 1.464,1.808 0.54,0 1.363,-0.344 1.363,-1.619 l 0,-3.344 1.886,0 0,3.481 c 0,2.184 -1.506,3.208 -2.969,3.208 m -12.552,1.59 -1.884,0 0,-1.79 -1.258,0 0,-1.53 1.258,0 0,-4.962 1.884,0 0,4.962 1.276,0 0,1.53 -1.276,0 0,1.79 z M 24.107,-2.45 c -0.942,0 -1.708,0.781 -1.708,1.744 0,0.962 0.769,1.744 1.708,1.744 0.942,0 1.71,-0.782 1.71,-1.744 0,-0.963 -0.768,-1.744 -1.71,-1.744 m 0,5.194 c -1.913,0 -3.463,-1.548 -3.463,-3.448 0,-1.901 1.55,-3.447 3.463,-3.447 1.914,0 3.465,1.546 3.465,3.447 0,1.9 -1.551,3.448 -3.465,3.448 m -44.023,-3.205 -3.825,5.033 c -0.396,0.519 -0.77,0.679 -1.074,0.679 -0.724,0 -1.102,-0.435 -1.102,-1.059 l 0,-8.138 2.024,0 0,5.649 3.825,-5.034 c 0.395,-0.519 0.772,-0.678 1.076,-0.678 0.723,0 1.102,0.435 1.102,1.058 l 0,8.141 -2.026,0 0,-5.651 z m 3.466,-3.491 1.887,0 0,6.496 -1.887,0 0,-6.496 z m 0.943,9.551 c -0.608,0 -1.101,-0.493 -1.101,-1.102 0,-0.609 0.493,-1.103 1.101,-1.103 0.609,0 1.102,0.494 1.102,1.103 0,0.609 -0.493,1.102 -1.102,1.102 m 5.826,-2.855 c -0.705,0 -1.336,-0.288 -1.723,-0.752 l -0.019,0 0,0.552 -1.887,0 0,-6.493 1.887,0 0,3.159 c 0,1.262 0.685,1.808 1.465,1.808 0.54,0 1.361,-0.344 1.361,-1.619 l 0,-3.344 1.89,0 0,3.481 c 0,2.184 -1.508,3.208 -2.974,3.208"
             style="fill:#939598;fill-opacity:1;fill-rule:nonzero;stroke:none"
             id="path3755" />
        </g>
        <g
           id="g3757"
           transform="translate(123.7715,353.6232)">
          <path
             inkscape:connector-curvature="0"
             d="m 0,0 c -0.908,0.302 -1.599,0.527 -1.599,1.166 0,0.425 0.374,0.826 1.068,0.826 0.701,0 1.116,-0.369 1.455,-0.646 L 2.48,2.429 c -0.662,0.818 -1.79,1.503 -2.983,1.503 -1.654,0 -3.076,-1.215 -3.076,-2.795 0,-1.182 0.796,-2.295 2.457,-2.846 1.041,-0.348 1.694,-0.555 1.694,-1.223 0,-0.458 -0.464,-0.873 -1.03,-0.873 -0.695,0 -1.267,0.469 -1.703,0.857 l -1.652,-1.153 c 0.821,-0.954 2.122,-1.651 3.306,-1.651 1.839,0 3.095,1.401 3.095,2.863 C 2.588,-1.756 1.956,-0.652 0,0 m 21.88,-3.992 c -0.988,0 -1.717,0.776 -1.717,1.758 0,0.981 0.729,1.758 1.717,1.758 0.986,0 1.74,-0.789 1.74,-1.758 0,-0.969 -0.754,-1.758 -1.74,-1.758 m 0.063,5.206 c -0.891,0 -1.588,-0.458 -1.738,-0.679 l -0.031,0 0,0.479 -1.886,0 0,-9.139 1.886,0 0,3.121 0.031,0 c 0.15,-0.221 0.847,-0.678 1.738,-0.678 1.86,0 3.427,1.552 3.427,3.448 0,1.895 -1.567,3.448 -3.427,3.448 M 7.121,1.212 C 6.415,1.212 5.784,0.925 5.399,0.459 l -0.022,0 0,3.199 -1.885,0 0,-9.14 1.885,0 0,3.16 c 0,1.261 0.686,1.808 1.465,1.808 0.54,0 1.364,-0.343 1.364,-1.62 l 0,-3.344 1.887,0 0,3.481 c 0,2.184 -1.51,3.209 -2.972,3.209 M -4.656,3.974 C -4.669,3.988 -4.691,3.987 -4.699,3.972 L -6.091,2.05 c -0.006,-0.009 -0.006,-0.02 0,-0.026 0.009,-0.008 0.018,-0.009 0.026,-0.006 l 2.058,1.185 c 0.014,0.01 0.02,0.03 0.007,0.044 L -4.656,3.974 z M -8.311,0.365 c 0.526,0 0.941,-0.192 1.323,-0.545 l -3.409,-1.965 c -0.248,1.302 0.76,2.51 2.086,2.51 m 0.063,-4.366 c -0.525,0 -1.12,0.217 -1.426,0.598 l 3.79,2.201 c 0.812,0.468 1.189,0.879 0.837,1.486 -0.543,0.859 -1.914,1.766 -3.395,1.766 -2.097,0 -3.809,-1.857 -3.809,-3.915 0,-2.212 1.939,-3.918 4.068,-3.918 1.966,0 3.721,1.415 3.818,3.459 l -1.952,0 c -0.089,-0.915 -0.856,-1.677 -1.931,-1.677 m 1.537,6.469 1.264,2.008 c 0.006,0.016 0.002,0.037 -0.015,0.041 L -6.384,4.854 C -6.399,4.86 -6.419,4.848 -6.42,4.831 L -6.747,2.48 c 0,-0.01 0.003,-0.019 0.014,-0.023 0.009,-0.003 0.018,0.001 0.022,0.011 m 20.902,-6.449 c -0.943,0 -1.71,0.781 -1.71,1.744 0,0.963 0.767,1.746 1.71,1.746 0.939,0 1.705,-0.783 1.705,-1.746 0,-0.963 -0.766,-1.744 -1.705,-1.744 m 0,5.195 c -1.915,0 -3.467,-1.548 -3.467,-3.448 0,-1.901 1.552,-3.448 3.467,-3.448 1.912,0 3.463,1.547 3.463,3.448 0,1.9 -1.551,3.448 -3.463,3.448 M -7.504,2.538 c 0.009,0.002 0.016,0.01 0.017,0.02 l 0.171,2.368 c 0,0.017 -0.016,0.033 -0.035,0.03 L -8.318,4.819 C -8.339,4.817 -8.348,4.799 -8.342,4.78 l 0.815,-2.227 c 0.002,-0.01 0.013,-0.015 0.023,-0.015"
             style="fill:#f68b32;fill-opacity:1;fill-rule:nonzero;stroke:none"
             id="path3759" />
        </g>
      </g>
    </g>
  </g>
</svg>
